<?xml version="1.0" standalone="no"?>
<!DOCTYPE svg PUBLIC "-//W3C//DTD SVG 20010904//EN"
 "http://www.w3.org/TR/2001/REC-SVG-20010904/DTD/svg10.dtd">
<svg version="1.0" xmlns="http://www.w3.org/2000/svg"
 width="857.000000pt" height="643.000000pt" viewBox="0 0 857.000000 643.000000"
 preserveAspectRatio="xMidYMid meet">

<g transform="translate(0.000000,643.000000) scale(0.100000,-0.100000)"
fill="#000000" stroke="none">
<path d="M4070 6414 c-19 -2 -80 -9 -135 -15 -421 -45 -847 -196 -1219 -434
-430 -275 -794 -680 -1020 -1135 -313 -631 -394 -1293 -241 -1973 61 -273 139
-487 282 -773 l75 -150 -75 -125 c-41 -68 -111 -187 -157 -264 -215 -364 -461
-682 -706 -915 -91 -87 -281 -251 -319 -276 -51 -34 -31 -37 192 -31 301 8
468 35 741 121 162 51 226 78 412 171 l165 82 135 6 c401 19 889 124 1255 269
392 156 767 424 961 688 119 162 172 272 221 460 21 79 25 119 26 240 1 200
-28 338 -101 487 -33 69 -63 100 -47 51 4 -13 9 -90 12 -173 4 -126 2 -166
-16 -251 -59 -284 -178 -514 -376 -722 -215 -227 -474 -394 -788 -512 -361
-134 -760 -218 -1272 -265 -160 -15 -568 -19 -614 -6 -23 6 -23 7 21 61 145
179 292 397 488 725 202 337 453 708 634 935 129 162 295 333 353 364 83 44
181 133 255 231 110 145 164 299 175 501 10 181 -27 353 -109 506 -63 119
-197 231 -325 273 -29 9 -53 22 -53 28 0 23 82 163 137 235 110 144 303 297
477 377 118 55 277 104 411 127 155 26 426 21 576 -11 292 -63 547 -197 758
-397 129 -122 217 -239 286 -379 59 -119 83 -201 92 -306 l6 -68 -50 -58 c-99
-115 -170 -238 -212 -365 -39 -117 -47 -111 176 -123 l191 -10 -40 -50 c-138
-171 -153 -377 -54 -701 69 -225 81 -304 81 -549 -1 -247 -13 -324 -82 -536
-42 -129 -156 -361 -236 -481 -165 -245 -416 -483 -671 -637 -153 -93 -344
-179 -581 -261 -60 -21 -123 -43 -138 -49 l-29 -11 33 -43 c19 -23 80 -99 138
-169 l104 -128 209 0 c114 0 208 2 208 5 0 2 -49 66 -110 142 -60 76 -110 140
-110 143 0 3 35 15 78 27 240 66 535 229 822 453 79 62 163 116 228 149 56 28
164 93 240 144 738 498 1198 1204 1328 2042 26 166 26 661 0 840 -123 854
-704 1694 -1461 2112 -308 170 -626 275 -1015 334 -129 19 -525 34 -620 23z
m525 -319 c411 -47 798 -187 1130 -410 374 -250 650 -559 872 -975 207 -387
308 -833 289 -1270 -24 -560 -201 -1059 -529 -1495 -111 -147 -513 -529 -494
-469 3 10 22 66 41 122 90 260 120 434 120 697 0 299 -30 438 -150 695 l-49
105 0 115 c0 171 34 281 115 372 l39 45 103 7 c179 12 478 67 478 87 0 21 -55
95 -128 171 -135 142 -332 273 -504 338 l-57 21 -6 57 c-24 214 -58 313 -176
507 -217 360 -612 637 -1069 749 -225 55 -483 70 -683 41 -607 -90 -1081 -417
-1349 -932 -48 -94 -51 -97 -104 -119 -177 -72 -329 -247 -392 -455 -68 -220
-44 -515 58 -719 45 -89 143 -214 217 -274 42 -35 96 -68 145 -88 l77 -32
-128 -131 c-128 -133 -284 -330 -396 -502 -33 -51 -63 -93 -66 -93 -13 0 -109
221 -157 360 -221 646 -210 1243 35 1860 174 439 425 772 829 1102 170 138
435 287 649 364 225 80 477 141 650 157 114 10 472 5 590 -8z"/>
<path d="M4497 4461 c-100 -33 -155 -81 -208 -181 -20 -39 -24 -59 -24 -145 0
-85 3 -107 23 -145 35 -66 97 -125 165 -155 53 -24 69 -27 146 -23 100 5 168
35 228 101 79 88 113 231 79 333 -58 171 -245 269 -409 215z"/>
<path d="M3390 214 c-47 -7 -127 -15 -178 -17 -50 -2 -94 -6 -96 -8 -2 -2 35
-46 83 -97 l87 -92 242 0 c205 0 242 2 235 14 -4 8 -52 59 -105 115 -111 115
-100 112 -268 85z"/>
</g>
</svg>
