<?xml version="1.0" standalone="no"?>
<!DOCTYPE svg PUBLIC "-//W3C//DTD SVG 20010904//EN"
 "http://www.w3.org/TR/2001/REC-SVG-20010904/DTD/svg10.dtd">
<svg version="1.0" xmlns="http://www.w3.org/2000/svg"
 width="857.000000pt" height="875.000000pt" viewBox="0 0 857.000000 875.000000"
 preserveAspectRatio="xMidYMid meet">

<g transform="translate(0.000000,875.000000) scale(0.100000,-0.100000)"
fill="#000000" stroke="none">
<path d="M4070 8734 c-19 -2 -80 -9 -135 -15 -421 -45 -847 -196 -1219 -434
-430 -275 -794 -680 -1020 -1135 -313 -631 -394 -1293 -241 -1973 61 -273 139
-487 282 -773 l75 -150 -75 -125 c-41 -68 -111 -187 -157 -264 -215 -364 -461
-682 -706 -915 -91 -87 -281 -251 -319 -276 -51 -34 -31 -37 192 -31 301 8
468 35 741 121 162 51 226 78 412 171 l165 82 135 6 c401 19 889 124 1255 269
392 156 767 424 961 688 119 162 172 272 221 460 21 79 25 119 26 240 1 200
-28 338 -101 487 -33 69 -63 100 -47 51 4 -13 9 -90 12 -173 4 -126 2 -166
-16 -251 -59 -284 -178 -514 -376 -722 -215 -227 -474 -394 -788 -512 -361
-134 -760 -218 -1272 -265 -160 -15 -568 -19 -614 -6 -23 6 -23 7 21 61 145
179 292 397 488 725 202 337 453 708 634 935 129 162 295 333 353 364 83 44
181 133 255 231 110 145 164 299 175 501 10 181 -27 353 -109 506 -63 119
-197 231 -325 273 -29 9 -53 22 -53 28 0 23 82 163 137 235 110 144 303 297
477 377 118 55 277 104 411 127 155 26 426 21 576 -11 292 -63 547 -197 758
-397 129 -122 217 -239 286 -379 59 -119 83 -201 92 -306 l6 -68 -50 -58 c-99
-115 -170 -238 -212 -365 -39 -117 -47 -111 176 -123 l191 -10 -40 -50 c-138
-171 -153 -377 -54 -701 69 -225 81 -304 81 -549 -1 -247 -13 -324 -82 -536
-42 -129 -156 -361 -236 -481 -165 -245 -416 -483 -671 -637 -157 -96 -344
-178 -601 -268 -71 -25 -133 -48 -137 -52 -4 -3 33 -56 82 -116 49 -61 110
-136 135 -167 l46 -58 -208 -1 c-114 -1 -225 -1 -245 0 -33 1 -47 11 -123 90
-48 49 -96 101 -108 115 -27 31 -45 32 -189 11 -57 -8 -142 -16 -191 -18 -48
-2 -89 -6 -91 -8 -3 -2 36 -47 85 -99 49 -52 89 -96 89 -97 0 -2 -683 -3
-1517 -3 -849 0 -1531 -4 -1549 -9 -85 -24 -163 -97 -195 -180 -19 -53 -20
-71 -17 -970 3 -1028 -3 -947 79 -1036 62 -67 103 -85 217 -93 53 -4 1877 -7
4052 -7 3799 0 3957 1 4007 18 70 25 144 93 174 159 l23 53 -2 900 c-1 495 -5
914 -8 930 -19 94 -108 194 -197 220 -43 13 -289 15 -1846 15 -988 0 -1801 4
-1807 8 -13 8 -234 284 -234 292 0 3 35 15 78 27 240 66 535 229 822 453 79
62 163 116 228 149 56 28 164 93 240 144 738 498 1198 1204 1328 2042 26 166
26 661 0 840 -123 854 -704 1694 -1461 2112 -308 170 -626 275 -1015 334 -129
19 -525 34 -620 23z m525 -319 c411 -47 798 -187 1130 -410 374 -250 650 -559
872 -975 207 -387 308 -833 289 -1270 -24 -560 -201 -1059 -529 -1495 -111
-147 -513 -529 -494 -469 3 10 22 66 41 122 90 260 120 434 120 697 0 299 -30
438 -150 695 l-49 105 0 115 c0 171 34 281 115 372 l39 45 103 7 c179 12 478
67 478 87 0 21 -55 95 -128 171 -135 142 -332 273 -504 338 l-57 21 -6 57
c-24 214 -58 313 -176 507 -217 360 -612 637 -1069 749 -225 55 -483 70 -683
41 -607 -90 -1081 -417 -1349 -932 -48 -94 -51 -97 -104 -119 -177 -72 -329
-247 -392 -455 -68 -220 -44 -515 58 -719 45 -89 143 -214 217 -274 42 -35 96
-68 145 -88 l77 -32 -128 -131 c-128 -133 -284 -330 -396 -502 -33 -51 -63
-93 -66 -93 -13 0 -109 221 -157 360 -221 646 -210 1243 35 1860 174 439 425
772 829 1102 170 138 435 287 649 364 225 80 477 141 650 157 114 10 472 5
590 -8z m-3505 -6606 c104 -24 218 -100 274 -183 55 -81 55 -81 -64 -148 -57
-32 -107 -58 -111 -58 -3 0 -14 17 -23 38 -24 52 -58 88 -106 113 -54 28 -174
25 -216 -7 -66 -49 -92 -131 -60 -191 24 -47 69 -69 213 -102 223 -51 301 -86
371 -166 54 -62 76 -134 70 -238 -6 -111 -40 -187 -119 -262 -91 -87 -202
-125 -366 -125 -148 0 -282 43 -375 120 -39 32 -118 143 -118 166 0 12 218
131 224 122 1 -2 14 -24 29 -49 29 -51 85 -105 126 -120 171 -66 341 12 341
156 0 90 -71 140 -252 180 -208 46 -295 87 -354 166 -63 85 -72 261 -20 371
48 102 160 190 274 217 52 13 208 13 262 0z m1365 -14 c114 -31 202 -81 285
-164 86 -85 126 -149 166 -266 25 -71 28 -94 28 -210 1 -109 -3 -142 -23 -205
-36 -118 -78 -187 -166 -276 -65 -65 -98 -90 -166 -122 -106 -52 -199 -74
-314 -74 -192 -1 -342 59 -470 187 -88 87 -138 171 -171 285 -28 99 -26 290 5
390 73 240 257 411 496 464 85 19 243 15 330 -9z m3870 -9 c102 -35 170 -74
242 -139 201 -184 268 -500 162 -765 -90 -227 -286 -373 -538 -401 -307 -34
-596 131 -700 399 -101 261 -42 560 149 750 85 85 177 137 300 170 109 29 274
23 385 -14z m-2295 -85 l0 -89 -43 -59 c-120 -162 -432 -583 -514 -693 -51
-69 -93 -127 -93 -130 0 -3 146 -4 325 -2 l325 3 0 -118 0 -118 -485 0 -485 0
0 110 0 111 310 414 c170 228 310 418 310 423 0 4 -137 7 -305 7 l-305 0 0
115 0 115 480 0 480 0 0 -89z m454 2 c132 -414 299 -913 304 -909 3 3 70 205
148 448 79 244 151 467 161 496 l17 52 139 0 c128 0 139 -1 132 -17 -18 -49
-107 -307 -186 -543 -49 -146 -125 -368 -168 -495 l-78 -230 -163 0 -163 0
-29 80 c-15 44 -60 166 -98 270 -38 105 -119 330 -180 500 -61 171 -122 338
-135 373 l-23 62 147 0 147 0 28 -87z m2870 -46 c48 -73 172 -257 275 -411
l186 -278 3 411 2 411 135 0 135 0 0 -645 0 -645 -138 0 -138 0 -264 391
c-146 215 -270 398 -277 407 -10 14 -12 -69 -13 -397 0 -373 -2 -413 -16 -407
-9 3 -69 6 -135 6 l-119 0 0 645 0 645 138 0 137 -1 89 -132z"/>
<path d="M2187 1560 c-221 -56 -353 -298 -292 -535 35 -132 100 -215 213 -268
61 -29 76 -32 162 -32 84 0 103 3 157 29 151 69 246 248 230 434 -18 212 -166
365 -367 377 -36 2 -82 0 -103 -5z"/>
<path d="M6016 1559 c-161 -40 -280 -198 -290 -383 -11 -186 74 -345 222 -418
61 -30 74 -33 162 -33 87 0 101 3 161 32 81 40 140 102 181 189 133 284 -34
606 -321 620 -42 2 -94 -1 -115 -7z"/>
<path d="M4497 6781 c-100 -33 -155 -81 -208 -181 -20 -39 -24 -59 -24 -145 0
-85 3 -107 23 -145 35 -66 97 -125 165 -155 53 -24 69 -27 146 -23 100 5 168
35 228 101 79 88 113 231 79 333 -58 171 -245 269 -409 215z"/>
</g>
</svg>
